<svg xmlns="http://www.w3.org/2000/svg" viewBox="0 0 360 228"><style>text{font-family:"Noto Sans SC","PingFang SC","Microsoft YaHei",sans-serif;font-size:11px;fill:#222}.sm{font-size:9.5px}.r{fill:#c62828}.g{fill:#2e7d32}.gr{fill:#888}.bd{font-weight:bold}.w{fill:#fff}.ln{stroke:#888;stroke-width:1;fill:none}.s{stroke:#222;stroke-width:1.6;fill:none;stroke-linecap:round}.sd{stroke:#888;stroke-width:1.6;fill:none;stroke-dasharray:4 3;stroke-linecap:round}.dot{fill:#222}</style><defs>
<marker id="ah" viewBox="0 0 10 10" refX="9" refY="5" markerWidth="6" markerHeight="6" orient="auto-start-reverse"><path d="M0 0 L10 5 L0 10 z" fill="#555"></path></marker>
<marker id="ahr" viewBox="0 0 10 10" refX="9" refY="5" markerWidth="6" markerHeight="6" orient="auto-start-reverse"><path d="M0 0 L10 5 L0 10 z" fill="#c62828"></path></marker>
<marker id="ahb" viewBox="0 0 10 10" refX="9" refY="5" markerWidth="6" markerHeight="6" orient="auto-start-reverse"><path d="M0 0 L10 5 L0 10 z" fill="#1565c0"></path></marker>
</defs><rect x="0" y="0" width="360" height="228" fill="#fff"/>
<ellipse cx="115" cy="142" rx="54" ry="62" fill="#ffe0b2" stroke="#a1887f" stroke-width="1.5"></ellipse>
<path d="M62 130 L49 150 L62 155" fill="#ffe0b2" stroke="#a1887f" stroke-width="1.5"></path>
<ellipse cx="132" cy="142" rx="7" ry="11" fill="#ffccbc" stroke="#a1887f"></ellipse>
<path d="M62 110 Q115 50 168 110" fill="none" stroke="#795548" stroke-width="3"></path>
<path d="M46 110 C46 38, 184 38, 184 110" fill="none" stroke="#f9a825" stroke-width="9"></path>
<path d="M22 112 L188 112" stroke="#f9a825" stroke-width="7" stroke-linecap="round"></path>
<line x1="64" y1="120" x2="170" y2="120" stroke="#6d4c41" stroke-width="5"></line>
<circle cx="172" cy="128" r="8" fill="#424242"></circle>
<path d="M150 124 Q150 185 92 198" stroke="#212121" stroke-width="3" fill="none"></path>
<line x1="208" y1="50" x2="172" y2="62" class="ln"></line><text x="212" y="54">帽壳：完好，挤压无变形</text>
<line x1="208" y1="80" x2="140" y2="84" class="ln"></line><text x="212" y="84">帽衬（内衬）</text>
<text x="212" y="98" class="sm gr">和帽壳之间留着空隙</text>
<line x1="208" y1="126" x2="182" y2="128" class="ln"></line><text x="212" y="130">后箍 + 调节旋钮</text>
<line x1="208" y1="172" x2="146" y2="170" class="ln"></line><text x="212" y="176">下颌带：勒紧后</text>
<text x="212" y="192">能伸进一个手指</text>
<text x="12" y="222" class="sm">三证齐全：合格证、生产许可证、强制检验证</text>
</svg>